<svg width="40" height="40" viewBox="0 0 40 40" fill="none" xmlns="http://www.w3.org/2000/svg">
<path fill-rule="evenodd" clip-rule="evenodd" d="M20 40C8.9543 40 0 31.0457 0 20C0 8.9543 8.9543 0 20 0C31.0457 0 40 8.9543 40 20C40 31.0457 31.0457 40 20 40ZM33.4536 29.3175C35.2884 26.6733 36.3636 23.4622 36.3636 20C36.3636 10.9626 29.0374 3.63636 20 3.63636C10.9626 3.63636 3.63636 10.9626 3.63636 20C3.63636 23.4622 4.7116 26.6733 6.54637 29.3175C8.59264 26.6147 13.4011 25.4545 20 25.4545C26.5989 25.4545 31.4074 26.6147 33.4536 29.3175ZM30.8449 32.2541C30.3127 30.3406 26.4898 29.0909 20 29.0909C13.5102 29.0909 9.68727 30.3406 9.15512 32.2541C12.0424 34.8112 15.8399 36.3636 20 36.3636C24.1601 36.3636 27.9576 34.8112 30.8449 32.2541ZM20 9.09091C15.5984 9.09091 12.7273 12.2832 12.7273 16.3636C12.7273 22.5952 15.9288 25.4545 20 25.4545C24.0329 25.4545 27.2727 22.6902 27.2727 16.7273C27.2727 12.5847 24.3894 9.09091 20 9.09091ZM16.3636 16.3636C16.3636 20.4896 17.8513 21.8182 20 21.8182C22.1413 21.8182 23.6364 20.5425 23.6364 16.7273C23.6364 14.4553 22.2103 12.7273 20 12.7273C17.6977 12.7273 16.3636 14.2106 16.3636 16.3636Z" fill="#212121"/>
</svg>
